<svg width="24" height="24" viewBox="0 0 24 24" fill="none" xmlns="http://www.w3.org/2000/svg">
<path d="M12 0C18.623 0 24 5.377 24 12C24 18.623 18.623 24 12 24C5.377 24 0 18.623 0 12C0 5.377 5.377 0 12 0ZM3.245 17.539C4.17929 19.0157 5.47195 20.2322 7.00269 21.0751C8.53344 21.918 10.2525 22.36 12 22.36C15.681 22.36 18.917 20.436 20.755 17.539L12 14.203L3.245 17.539ZM13.908 10.898L21.175 16.813C21.9559 15.329 22.3627 13.6769 22.36 12C22.36 6.423 17.943 1.869 12.42 1.648L13.908 10.898ZM11.58 1.648C6.057 1.869 1.64 6.423 1.64 12C1.64 13.737 2.068 15.374 2.825 16.813L10.092 10.898L11.58 1.648Z" fill="black"/>
</svg>
