<svg width="24" height="24" viewBox="0 0 24 24" fill="none" xmlns="http://www.w3.org/2000/svg">
<path d="M12 5.4792H11.838C10.0059 5.5006 8.25676 6.24616 6.97259 7.55303C5.68842 8.85989 4.97362 10.6218 4.98432 12.454C4.99502 14.2862 5.73036 16.0397 7.0297 17.3315C8.32904 18.6232 10.0868 19.3483 11.919 19.3483C13.7512 19.3483 15.509 18.6232 16.8083 17.3315C18.1077 16.0397 18.843 14.2862 18.8537 12.454C18.8644 10.6218 18.1496 8.85989 16.8654 7.55303C15.5812 6.24616 13.8321 5.5006 12 5.4792ZM18.0336 12.3324H11.9376V18.4296C10.3223 18.4312 8.77255 17.7911 7.62914 16.6502C6.48573 15.5093 5.84231 13.9609 5.8404 12.3456V12.3324H11.9376V6.24C12.7374 6.23905 13.5295 6.39564 14.2687 6.70082C15.0079 7.00599 15.6798 7.45379 16.246 8.01863C16.8122 8.58347 17.2616 9.25429 17.5685 9.9928C17.8754 10.7313 18.0339 11.523 18.0348 12.3228L18.0336 12.3324ZM6.5172 6.0324C6.60991 5.94658 6.67963 5.8389 6.72 5.7192C6.73118 5.67073 6.72703 5.61998 6.70811 5.57398C6.68919 5.52797 6.65645 5.48898 6.6144 5.4624C6.57481 5.43528 6.528 5.42065 6.48 5.4204C6.43166 5.42292 6.38431 5.43516 6.3408 5.4564C6.25234 5.51089 6.17332 5.57938 6.1068 5.6592C5.8524 5.922 5.076 6.7392 5.076 6.7392L5.49 7.134L6.5172 6.0324ZM5.8368 4.902C5.83027 4.86889 5.81715 4.83744 5.79823 4.8095C5.77931 4.78156 5.75496 4.75771 5.72665 4.73935C5.69833 4.721 5.66662 4.70852 5.63339 4.70265C5.60016 4.69678 5.56609 4.69765 5.5332 4.7052C5.45192 4.73343 5.37836 4.78028 5.3184 4.842C4.94754 5.20198 4.59814 5.58344 4.272 5.9844L4.668 6.3624C4.668 6.3624 5.4684 5.5224 5.6844 5.2824C5.7385 5.2359 5.78059 5.17705 5.80712 5.11083C5.83364 5.04462 5.84383 4.97298 5.8368 4.902ZM12 0.9348C9.81117 0.934563 7.67143 1.58342 5.85139 2.79932C4.03135 4.01522 2.61275 5.74355 1.77501 7.76572C0.937276 9.78789 0.718023 12.0131 1.14498 14.1599C1.57195 16.3066 2.62594 18.2786 4.17368 19.8263C5.72141 21.3741 7.69337 22.4281 9.84015 22.855C11.9869 23.282 14.2121 23.0627 16.2343 22.225C18.2565 21.3872 19.9848 19.9687 21.2007 18.1486C22.4166 16.3286 23.0654 14.1888 23.0652 12C23.0654 10.5469 22.7793 9.10791 22.2232 7.76534C21.6672 6.42278 20.8522 5.2029 19.8246 4.17537C18.7971 3.14784 17.5772 2.33279 16.2347 1.77677C14.8921 1.22074 13.4532 0.934642 12 0.9348ZM10.2912 1.8336C10.6184 1.7968 10.9444 1.7708 11.2692 1.7556L11.9148 3.36L11.9376 3.48L11.9604 3.36L12.6 1.7556C12.9264 1.7708 13.2524 1.7968 13.578 1.8336L13.686 4.7364C13.4535 4.69796 13.2197 4.66714 12.9852 4.644L12.9168 2.6832L12.9264 2.5476L12.8868 2.6772L12.24 4.1448H11.64L10.9836 2.676L10.9416 2.5476L10.9548 2.6832L10.8852 4.644C10.6452 4.6668 10.4172 4.698 10.1856 4.7364L10.2912 1.8336ZM3.40681 6.1092C3.64681 5.802 3.8956 5.5016 4.1532 5.208C4.8972 4.3776 5.172 4.1352 5.5272 4.098C5.71634 4.07566 5.90663 4.12916 6.0564 4.2468C6.16302 4.32971 6.24271 4.44233 6.28542 4.57046C6.32813 4.69859 6.33196 4.8365 6.2964 4.9668L6.2868 4.992L6.3144 4.9824C6.4548 4.9192 6.61155 4.90188 6.76236 4.93291C6.91317 4.96393 7.05035 5.04172 7.1544 5.1552C7.5336 5.5956 7.32 6.054 6.942 6.4536C6.4068 7.0176 6.132 7.2936 5.454 8.0448L3.40681 6.1092ZM13.4508 19.368C12.9769 19.465 12.4945 19.5141 12.0108 19.5144C11.7675 19.5143 11.5244 19.5019 11.2824 19.4772C9.45117 19.2901 7.76164 18.4072 6.56249 17.0106C5.36335 15.614 4.74612 13.8104 4.83819 11.9719C4.93026 10.1334 5.7246 8.40049 7.05728 7.1307C8.38995 5.8609 10.1592 5.15118 12 5.148H12.1644C13.933 5.182 15.6269 5.86752 16.9214 7.07319C18.2158 8.27885 19.0198 9.91983 19.1792 11.6816C19.3385 13.4434 18.8421 15.202 17.785 16.6204C16.728 18.0388 15.1846 19.0172 13.4508 19.368ZM18.1968 7.8C18.0316 7.58553 17.8575 7.37815 17.6748 7.1784L18.4164 5.7456L18.4836 5.6532L18.3936 5.7216L16.9536 6.4644C16.7916 6.3156 16.5384 6.1044 16.3452 5.9496L17.88 3.5556C18.096 3.7224 18.264 3.8592 18.4416 4.0092L17.4372 5.5272L17.3484 5.6316L17.4612 5.5548L18.7992 4.884L19.272 5.3568L18.6 6.6948L18.5232 6.8076L18.6264 6.7176L20.1444 5.7168C20.3044 5.9 20.4556 6.0868 20.598 6.2772L18.1968 7.8ZM12 0C9.62663 0 7.30655 0.703788 5.33316 2.02236C3.35977 3.34094 1.8217 5.21508 0.913451 7.4078C0.00519941 9.60051 -0.232441 12.0133 0.230582 14.3411C0.693605 16.6689 1.83649 18.807 3.51472 20.4853C5.19295 22.1635 7.33115 23.3064 9.65892 23.7694C11.9867 24.2324 14.3995 23.9948 16.5922 23.0866C18.7849 22.1783 20.6591 20.6402 21.9776 18.6668C23.2962 16.6935 24 14.3734 24 12C23.9968 8.81838 22.7315 5.76797 20.4818 3.51823C18.232 1.26848 15.1816 0.00317686 12 0ZM12 23.6712C9.69166 23.6712 7.43515 22.9867 5.51583 21.7042C3.59651 20.4218 2.10059 18.599 1.21722 16.4664C0.333857 14.3337 0.102728 11.9871 0.553064 9.72306C1.0034 7.45907 2.11497 5.37946 3.74722 3.74721C5.37947 2.11497 7.45908 1.00339 9.72307 0.553059C11.9871 0.102723 14.3337 0.333851 16.4664 1.21722C18.599 2.10058 20.4218 3.59651 21.7042 5.51583C22.9867 7.43515 23.6712 9.69165 23.6712 12C23.6677 15.0943 22.4369 18.0609 20.2489 20.2489C18.0609 22.4369 15.0943 23.6677 12 23.6712Z" fill="black"/>
</svg>
