<svg width="24" height="24" viewBox="0 0 24 24" fill="none" xmlns="http://www.w3.org/2000/svg">
<path d="M12 5.362L14.475 2.336C14.475 2.336 18.72 2.426 22.946 4.39C21.864 6.026 19.715 6.828 19.715 6.828C19.569 5.389 18.561 5.038 15.361 5.038L12 24L8.619 5.034C5.439 5.034 4.431 5.388 4.284 6.826C4.284 6.826 2.138 6.031 1.055 4.396C5.28 2.431 9.525 2.34 9.525 2.34L12 5.362ZM12 5.362L11.996 5.364H12V5.362ZM12 1.463C15.415 1.433 19.326 1.991 23.328 3.743C23.863 2.775 24 2.348 24 2.348C19.625 0.612 15.528 0.015 12 0C8.472 0.015 4.375 0.61 0 2.349C0 2.349 0.195 2.874 0.672 3.745C4.674 1.989 8.585 1.435 12 1.46V1.463Z" fill="black"/>
</svg>
